Coordinates
version=1
nRows=4
nColumns=63
inDegrees=yes

Units are S.I. units (second, meters, Newtons, ...)
If the header above contains a line with 'inDegrees', this indicates whether rotational values are in degrees (yes) or radians (no).

endheader
time	pelvis_tilt	pelvis_list	pelvis_rotation	pelvis_tx	pelvis_ty	pelvis_tz	hip_flexion_r	hip_adduction_r	hip_rotation_r	knee_angle_r	knee_angle_r_beta	ankle_angle_r	subtalar_angle_r	mtp_angle_r	hip_flexion_l	hip_adduction_l	hip_rotation_l	knee_angle_l	knee_angle_l_beta	ankle_angle_l	subtalar_angle_l	mtp_angle_l	L5_S1_Flex_Ext	L5_S1_Lat_Bending	L5_S1_axial_rotation	L4_L5_Flex_Ext	L4_L5_Lat_Bending	L4_L5_axial_rotation	L3_L4_Flex_Ext	L3_L4_Lat_Bending	L3_L4_axial_rotation	L2_L3_Flex_Ext	L2_L3_Lat_Bending	L2_L3_axial_rotation	L1_L2_Flex_Ext	L1_L2_Lat_Bending	L1_L2_axial_rotation	L1_T12_Flex_Ext	L1_T12_Lat_Bending	L1_T12_axial_rotation	Abs_r3	Abs_r2	Abs_r1	Abs_t1	Abs_t2	neck_flexion	neck_bending	neck_rotation	arm_flex_r	arm_add_r	arm_rot_r	elbow_flex_r	pro_sup_r	wrist_flex_r	wrist_dev_r	arm_flex_l	arm_add_l	arm_rot_l	elbow_flex_l	pro_sup_l	wrist_flex_l	wrist_dev_l
      0.85000000	    -39.84277506	     11.95992780	    -73.65634716	     -0.09464469	      0.97545231	     -0.97804919	     33.39140171	    -20.82851777	    -28.07615746	     36.31762964	      0.63386221	      5.46883745	     16.71147043	      0.00000000	     46.14242465	    -27.98775984	     39.41861342	     55.52464769	      0.96908792	     23.66070255	    -18.77974458	      0.00000000	     -0.01620117	     -0.99377359	     -0.48761228	     -0.03008719	     -1.32171887	     -0.51808805	     -0.02661690	     -2.41626110	     -0.51808805	     -0.01851631	     -2.41626110	     -0.42666075	     -0.01504440	     -2.02650310	     -0.39618498	     -0.00925735	     -1.53935529	     -0.36570921	     -0.11572331	    -11.24176557	     -2.71195323	      0.00000000	      0.00000000	     -8.35896948	     11.20544128	     -1.81619121	    -27.87038348	    -45.03607709	    -96.58197446	    111.82538002	     89.99559364	      0.00000000	      0.00000000	      8.12715520	    -63.22724218	      7.36502697	     36.52914635	     89.99559364	      0.00000000	      0.00000000
      0.86666667	    -39.69535988	     12.21189320	    -72.60271471	     -0.09298758	      0.97737571	     -0.96936838	     33.65988947	    -20.78489761	    -29.24753805	     37.05316798	      0.64669978	      4.79922346	     17.46572983	      0.00000000	     45.77813313	    -27.61455749	     39.51576275	     54.26403849	      0.94708614	     24.02528916	    -18.56890298	      0.00000000	     -0.01580385	     -1.01980825	     -0.59425753	     -0.02934933	     -1.35634497	     -0.63139863	     -0.02596414	     -2.47956178	     -0.63139863	     -0.01806222	     -2.47956178	     -0.51997534	     -0.01467545	     -2.07959298	     -0.48283425	     -0.00903032	     -1.57968298	     -0.44569315	     -0.11288532	    -11.53627487	     -3.30508212	      0.00000000	      0.00000000	     -8.73357578	     11.29198965	     -1.87466990	    -27.16582175	    -44.91481668	    -95.88247483	    113.35859482	     89.99559364	      0.00000000	      0.00000000	      8.08052838	    -63.29321170	      6.74925508	     36.74969223	     89.99559364	      0.00000000	      0.00000000
      0.88333333	    -39.76538382	     12.60193455	    -71.69516426	     -0.09191991	      0.97869036	     -0.96373582	     34.47715174	    -20.29773725	    -30.16467982	     37.89696371	      0.66142679	      4.19496608	     18.02414057	      0.00000000	     45.91456035	    -27.45531645	     39.58839539	     53.18377034	      0.92823190	     24.34048462	    -18.19300131	      0.00000000	     -0.01526631	     -0.99905211	     -0.83856385	     -0.02835106	     -1.32873930	     -0.89097409	     -0.02508102	     -2.42909529	     -0.89097409	     -0.01744787	     -2.42909529	     -0.73374337	     -0.01417630	     -2.03726705	     -0.68133313	     -0.00872317	     -1.54753171	     -0.62892289	     -0.10904573	    -11.30147723	     -4.66384057	      0.00000000	      0.00000000	     -8.96409460	     11.16534220	     -1.48546755	    -25.03879459	    -45.65639723	    -93.58074950	    114.62199509	     89.99559364	      0.00000000	      0.00000000	      6.04998538	    -63.57279007	      4.85947770	     37.67950849	     89.99559364	      0.00000000	      0.00000000
      0.90000000	    -40.12077093	     13.19626407	    -70.61973231	     -0.09160174	      0.97915742	     -0.96129234	     35.90336620	    -19.30143226	    -30.34247982	     38.80545845	      0.67728302	      4.76272951	     18.29565977	      0.00000000	     46.80941761	    -27.39805802	     39.65580915	     52.23424728	      0.91165960	     24.41337115	    -17.69275489	      0.00000000	     -0.01246567	     -0.93384908	     -1.19341548	     -0.02315000	     -1.24201928	     -1.26800395	     -0.02047985	     -2.27056065	     -1.26800395	     -0.01424702	     -2.27056065	     -1.04423855	     -0.01157562	     -1.90430504	     -0.96965008	     -0.00712288	     -1.44653223	     -0.89506161	     -0.08904104	    -10.56388756	     -6.63741888	      0.00000000	      0.00000000	     -9.05063067	     10.43243502	      0.50619785	    -22.41602829	    -46.81684801	    -90.76812510	    115.72048584	     89.99559364	      0.00000000	      0.00000000	      1.48489008	    -62.47401304	     -4.31985381	     40.01981738	     89.99559364	      0.00000000	      0.00000000
